<mxfile host="app.diagrams.net" modified="2023-10-12T00:45:03.377Z" agent="Mozilla/5.0 (Windows NT 10.0; Win64; x64) AppleWebKit/537.36 (KHTML, like Gecko) Chrome/118.0.0.0 Safari/537.36 Edg/118.0.2088.41" etag="mqEfMggsNoAMYFpsvGdl" version="22.0.4" type="onedrive">
  <diagram name="Page-1" id="e7e014a7-5840-1c2e-5031-d8a46d1fe8dd">
    <mxGraphModel grid="1" page="1" gridSize="10" guides="1" tooltips="1" connect="1" arrows="1" fold="1" pageScale="1" pageWidth="1654" pageHeight="1169" background="none" math="0" shadow="0">
      <root>
        <mxCell id="0" />
        <mxCell id="1" parent="0" />
        <mxCell id="5xcmE_WBOUX7dpFM1XJE-43" value="USER" style="whiteSpace=wrap;html=1;aspect=fixed;fillColor=#CC6600;strokeColor=#d79b00;" vertex="1" parent="1">
          <mxGeometry x="300" y="177" width="80" height="80" as="geometry" />
        </mxCell>
        <mxCell id="5xcmE_WBOUX7dpFM1XJE-44" value="" style="endArrow=classic;html=1;rounded=0;exitX=1;exitY=0.5;exitDx=0;exitDy=0;strokeWidth=2;entryX=0;entryY=0.25;entryDx=0;entryDy=0;" edge="1" parent="1">
          <mxGeometry width="50" height="50" relative="1" as="geometry">
            <mxPoint x="380" y="200" as="sourcePoint" />
            <mxPoint x="580" y="200" as="targetPoint" />
            <Array as="points">
              <mxPoint x="460" y="200" />
            </Array>
          </mxGeometry>
        </mxCell>
        <mxCell id="5xcmE_WBOUX7dpFM1XJE-49" value="User Details" style="edgeLabel;html=1;align=center;verticalAlign=middle;resizable=0;points=[];" connectable="0" vertex="1" parent="5xcmE_WBOUX7dpFM1XJE-44">
          <mxGeometry x="-0.0735" y="-4" relative="1" as="geometry">
            <mxPoint y="-4" as="offset" />
          </mxGeometry>
        </mxCell>
        <mxCell id="5xcmE_WBOUX7dpFM1XJE-47" style="edgeStyle=orthogonalEdgeStyle;rounded=0;orthogonalLoop=1;jettySize=auto;html=1;exitX=0;exitY=0.75;exitDx=0;exitDy=0;entryX=1;entryY=0.75;entryDx=0;entryDy=0;strokeWidth=2;" edge="1" parent="1" source="5xcmE_WBOUX7dpFM1XJE-45" target="5xcmE_WBOUX7dpFM1XJE-43">
          <mxGeometry relative="1" as="geometry" />
        </mxCell>
        <mxCell id="5xcmE_WBOUX7dpFM1XJE-48" value="Confirmation/error" style="edgeLabel;html=1;align=center;verticalAlign=middle;resizable=0;points=[];" connectable="0" vertex="1" parent="5xcmE_WBOUX7dpFM1XJE-47">
          <mxGeometry x="0.1007" y="-2" relative="1" as="geometry">
            <mxPoint as="offset" />
          </mxGeometry>
        </mxCell>
        <mxCell id="5xcmE_WBOUX7dpFM1XJE-45" value="1.0" style="swimlane;whiteSpace=wrap;html=1;fillColor=#0066CC;" vertex="1" parent="1">
          <mxGeometry x="580" y="177" width="160" height="80" as="geometry" />
        </mxCell>
        <mxCell id="5xcmE_WBOUX7dpFM1XJE-46" value="Signup" style="text;html=1;align=center;verticalAlign=middle;resizable=0;points=[];autosize=1;strokeColor=none;fillColor=none;" vertex="1" parent="5xcmE_WBOUX7dpFM1XJE-45">
          <mxGeometry x="50" y="40" width="60" height="30" as="geometry" />
        </mxCell>
        <mxCell id="5xcmE_WBOUX7dpFM1XJE-50" value="" style="endArrow=classic;html=1;rounded=0;strokeWidth=2;" edge="1" parent="1">
          <mxGeometry width="50" height="50" relative="1" as="geometry">
            <mxPoint x="890" y="227" as="sourcePoint" />
            <mxPoint x="740" y="227" as="targetPoint" />
          </mxGeometry>
        </mxCell>
        <mxCell id="5xcmE_WBOUX7dpFM1XJE-51" value="Check Data" style="edgeLabel;html=1;align=center;verticalAlign=middle;resizable=0;points=[];" connectable="0" vertex="1" parent="5xcmE_WBOUX7dpFM1XJE-50">
          <mxGeometry x="-0.1745" y="2" relative="1" as="geometry">
            <mxPoint as="offset" />
          </mxGeometry>
        </mxCell>
        <mxCell id="5xcmE_WBOUX7dpFM1XJE-55" value="D1" style="swimlane;horizontal=0;whiteSpace=wrap;html=1;startSize=23;" vertex="1" parent="1">
          <mxGeometry x="890" y="207" width="200" height="40" as="geometry" />
        </mxCell>
        <mxCell id="5xcmE_WBOUX7dpFM1XJE-56" value="User Details" style="text;html=1;align=center;verticalAlign=middle;resizable=0;points=[];autosize=1;strokeColor=none;fillColor=none;" vertex="1" parent="1">
          <mxGeometry x="955" y="215" width="90" height="30" as="geometry" />
        </mxCell>
        <mxCell id="5xcmE_WBOUX7dpFM1XJE-57" value="" style="endArrow=classic;html=1;rounded=0;exitX=0.25;exitY=1;exitDx=0;exitDy=0;entryX=0.813;entryY=0.013;entryDx=0;entryDy=0;entryPerimeter=0;" edge="1" parent="1" target="5xcmE_WBOUX7dpFM1XJE-59">
          <mxGeometry width="50" height="50" relative="1" as="geometry">
            <mxPoint x="710" y="257" as="sourcePoint" />
            <mxPoint x="710.48" y="347" as="targetPoint" />
          </mxGeometry>
        </mxCell>
        <mxCell id="5xcmE_WBOUX7dpFM1XJE-58" value="if new user" style="edgeLabel;html=1;align=center;verticalAlign=middle;resizable=0;points=[];" connectable="0" vertex="1" parent="5xcmE_WBOUX7dpFM1XJE-57">
          <mxGeometry x="-0.039" relative="1" as="geometry">
            <mxPoint y="49" as="offset" />
          </mxGeometry>
        </mxCell>
        <mxCell id="5xcmE_WBOUX7dpFM1XJE-59" value="3.0" style="swimlane;whiteSpace=wrap;html=1;fillColor=#0066CC;startSize=23;" vertex="1" parent="1">
          <mxGeometry x="580" y="395.78999999999996" width="160" height="80" as="geometry" />
        </mxCell>
        <mxCell id="5xcmE_WBOUX7dpFM1XJE-60" value="Send Signup Code" style="text;html=1;align=center;verticalAlign=middle;resizable=0;points=[];autosize=1;strokeColor=none;fillColor=none;" vertex="1" parent="5xcmE_WBOUX7dpFM1XJE-59">
          <mxGeometry x="20" y="40" width="120" height="30" as="geometry" />
        </mxCell>
        <mxCell id="5xcmE_WBOUX7dpFM1XJE-61" value="" style="endArrow=classic;html=1;rounded=0;exitX=1;exitY=0.5;exitDx=0;exitDy=0;" edge="1" parent="1">
          <mxGeometry width="50" height="50" relative="1" as="geometry">
            <mxPoint x="740" y="425.78999999999996" as="sourcePoint" />
            <mxPoint x="860" y="425.78999999999996" as="targetPoint" />
          </mxGeometry>
        </mxCell>
        <mxCell id="5xcmE_WBOUX7dpFM1XJE-63" value="user code" style="edgeLabel;html=1;align=center;verticalAlign=middle;resizable=0;points=[];" connectable="0" vertex="1" parent="5xcmE_WBOUX7dpFM1XJE-61">
          <mxGeometry x="0.2286" relative="1" as="geometry">
            <mxPoint as="offset" />
          </mxGeometry>
        </mxCell>
        <mxCell id="5xcmE_WBOUX7dpFM1XJE-62" value="" style="endArrow=classic;html=1;rounded=0;exitX=0.5;exitY=0;exitDx=0;exitDy=0;entryX=1.036;entryY=1.008;entryDx=0;entryDy=0;entryPerimeter=0;" edge="1" parent="1" source="MzSEFPL0XOC-AoXLzy2Q-12" target="5xcmE_WBOUX7dpFM1XJE-56">
          <mxGeometry width="50" height="50" relative="1" as="geometry">
            <mxPoint x="917.5" y="347" as="sourcePoint" />
            <mxPoint x="1050" y="270" as="targetPoint" />
            <Array as="points">
              <mxPoint x="1223" y="360" />
              <mxPoint x="1140" y="360" />
              <mxPoint x="1048" y="360" />
            </Array>
          </mxGeometry>
        </mxCell>
        <mxCell id="5xcmE_WBOUX7dpFM1XJE-66" value="add user data" style="edgeLabel;html=1;align=center;verticalAlign=middle;resizable=0;points=[];" connectable="0" vertex="1" parent="5xcmE_WBOUX7dpFM1XJE-62">
          <mxGeometry x="-0.0977" y="-3" relative="1" as="geometry">
            <mxPoint as="offset" />
          </mxGeometry>
        </mxCell>
        <mxCell id="5xcmE_WBOUX7dpFM1XJE-64" value="4.0" style="swimlane;whiteSpace=wrap;html=1;fillColor=#0066CC;" vertex="1" parent="1">
          <mxGeometry x="860" y="395.78999999999996" width="165" height="80" as="geometry" />
        </mxCell>
        <mxCell id="5xcmE_WBOUX7dpFM1XJE-65" value="Validate code and user data" style="text;html=1;align=center;verticalAlign=middle;resizable=0;points=[];autosize=1;strokeColor=none;fillColor=none;" vertex="1" parent="5xcmE_WBOUX7dpFM1XJE-64">
          <mxGeometry x="-5" y="40" width="170" height="30" as="geometry" />
        </mxCell>
        <mxCell id="5xcmE_WBOUX7dpFM1XJE-67" value="" style="endArrow=classic;html=1;rounded=0;exitX=0.021;exitY=0.61;exitDx=0;exitDy=0;exitPerimeter=0;entryX=1;entryY=0.75;entryDx=0;entryDy=0;" edge="1" parent="1" source="5xcmE_WBOUX7dpFM1XJE-65" target="5xcmE_WBOUX7dpFM1XJE-59">
          <mxGeometry width="50" height="50" relative="1" as="geometry">
            <mxPoint x="690" y="495.78999999999996" as="sourcePoint" />
            <mxPoint x="740" y="445.78999999999996" as="targetPoint" />
          </mxGeometry>
        </mxCell>
        <mxCell id="5xcmE_WBOUX7dpFM1XJE-68" value="error/confirmation" style="edgeLabel;html=1;align=center;verticalAlign=middle;resizable=0;points=[];" connectable="0" vertex="1" parent="5xcmE_WBOUX7dpFM1XJE-67">
          <mxGeometry x="-0.1492" y="-3" relative="1" as="geometry">
            <mxPoint as="offset" />
          </mxGeometry>
        </mxCell>
        <mxCell id="5xcmE_WBOUX7dpFM1XJE-69" value="" style="endArrow=classic;html=1;rounded=0;exitX=0.25;exitY=0;exitDx=0;exitDy=0;entryX=0.25;entryY=1;entryDx=0;entryDy=0;" edge="1" parent="1" source="5xcmE_WBOUX7dpFM1XJE-59" target="5xcmE_WBOUX7dpFM1XJE-45">
          <mxGeometry width="50" height="50" relative="1" as="geometry">
            <mxPoint x="649" y="289.15" as="sourcePoint" />
            <mxPoint x="530" y="291.15" as="targetPoint" />
          </mxGeometry>
        </mxCell>
        <mxCell id="5xcmE_WBOUX7dpFM1XJE-70" value="error/confirmation" style="edgeLabel;html=1;align=center;verticalAlign=middle;resizable=0;points=[];" connectable="0" vertex="1" parent="5xcmE_WBOUX7dpFM1XJE-69">
          <mxGeometry x="-0.1492" y="-3" relative="1" as="geometry">
            <mxPoint as="offset" />
          </mxGeometry>
        </mxCell>
        <mxCell id="MzSEFPL0XOC-AoXLzy2Q-7" value="" style="endArrow=classic;html=1;rounded=0;exitX=1;exitY=0.5;exitDx=0;exitDy=0;entryX=0;entryY=0.25;entryDx=0;entryDy=0;" edge="1" parent="1" target="MzSEFPL0XOC-AoXLzy2Q-12">
          <mxGeometry width="50" height="50" relative="1" as="geometry">
            <mxPoint x="1025" y="420.78999999999996" as="sourcePoint" />
            <mxPoint x="1130" y="425.78999999999996" as="targetPoint" />
          </mxGeometry>
        </mxCell>
        <mxCell id="MzSEFPL0XOC-AoXLzy2Q-8" value="code is valid" style="edgeLabel;html=1;align=center;verticalAlign=middle;resizable=0;points=[];" connectable="0" vertex="1" parent="MzSEFPL0XOC-AoXLzy2Q-7">
          <mxGeometry x="0.2286" relative="1" as="geometry">
            <mxPoint as="offset" />
          </mxGeometry>
        </mxCell>
        <mxCell id="MzSEFPL0XOC-AoXLzy2Q-9" value="" style="endArrow=classic;html=1;rounded=0;exitX=0.021;exitY=0.61;exitDx=0;exitDy=0;exitPerimeter=0;entryX=1;entryY=0.75;entryDx=0;entryDy=0;" edge="1" parent="1">
          <mxGeometry width="50" height="50" relative="1" as="geometry">
            <mxPoint x="1144" y="448.78999999999996" as="sourcePoint" />
            <mxPoint x="1025" y="450.78999999999996" as="targetPoint" />
          </mxGeometry>
        </mxCell>
        <mxCell id="MzSEFPL0XOC-AoXLzy2Q-10" value="error/confirmation" style="edgeLabel;html=1;align=center;verticalAlign=middle;resizable=0;points=[];" connectable="0" vertex="1" parent="MzSEFPL0XOC-AoXLzy2Q-9">
          <mxGeometry x="-0.1492" y="-3" relative="1" as="geometry">
            <mxPoint as="offset" />
          </mxGeometry>
        </mxCell>
        <mxCell id="MzSEFPL0XOC-AoXLzy2Q-12" value="5.0" style="swimlane;whiteSpace=wrap;html=1;fillColor=#0066CC;" vertex="1" parent="1">
          <mxGeometry x="1140" y="395.78999999999996" width="165" height="80" as="geometry" />
        </mxCell>
        <mxCell id="MzSEFPL0XOC-AoXLzy2Q-13" value="Validate password" style="text;html=1;align=center;verticalAlign=middle;resizable=0;points=[];autosize=1;strokeColor=none;fillColor=none;" vertex="1" parent="MzSEFPL0XOC-AoXLzy2Q-12">
          <mxGeometry x="20" y="40" width="120" height="30" as="geometry" />
        </mxCell>
        <mxCell id="MzSEFPL0XOC-AoXLzy2Q-16" value="2.0" style="swimlane;whiteSpace=wrap;html=1;fillColor=#0066CC;" vertex="1" parent="1">
          <mxGeometry x="300" y="395.78999999999996" width="160" height="80" as="geometry" />
        </mxCell>
        <mxCell id="MzSEFPL0XOC-AoXLzy2Q-17" value="forgot password" style="text;html=1;align=center;verticalAlign=middle;resizable=0;points=[];autosize=1;strokeColor=none;fillColor=none;" vertex="1" parent="MzSEFPL0XOC-AoXLzy2Q-16">
          <mxGeometry x="25" y="40" width="110" height="30" as="geometry" />
        </mxCell>
        <mxCell id="MzSEFPL0XOC-AoXLzy2Q-22" value="" style="endArrow=classic;html=1;rounded=0;exitX=0.25;exitY=1;exitDx=0;exitDy=0;strokeWidth=2;entryX=0.135;entryY=-0.03;entryDx=0;entryDy=0;entryPerimeter=0;" edge="1" parent="1" source="5xcmE_WBOUX7dpFM1XJE-43" target="MzSEFPL0XOC-AoXLzy2Q-16">
          <mxGeometry width="50" height="50" relative="1" as="geometry">
            <mxPoint x="50" y="204" as="sourcePoint" />
            <mxPoint x="250" y="204" as="targetPoint" />
            <Array as="points" />
          </mxGeometry>
        </mxCell>
        <mxCell id="MzSEFPL0XOC-AoXLzy2Q-23" value="User email" style="edgeLabel;html=1;align=center;verticalAlign=middle;resizable=0;points=[];" connectable="0" vertex="1" parent="MzSEFPL0XOC-AoXLzy2Q-22">
          <mxGeometry x="-0.0735" y="-4" relative="1" as="geometry">
            <mxPoint y="-4" as="offset" />
          </mxGeometry>
        </mxCell>
        <mxCell id="MzSEFPL0XOC-AoXLzy2Q-24" style="edgeStyle=orthogonalEdgeStyle;rounded=0;orthogonalLoop=1;jettySize=auto;html=1;entryX=0.75;entryY=1;entryDx=0;entryDy=0;strokeWidth=2;exitX=0.75;exitY=0;exitDx=0;exitDy=0;" edge="1" parent="1" source="MzSEFPL0XOC-AoXLzy2Q-16" target="5xcmE_WBOUX7dpFM1XJE-43">
          <mxGeometry relative="1" as="geometry">
            <mxPoint x="430" y="277" as="sourcePoint" />
            <mxPoint x="180" y="307" as="targetPoint" />
            <Array as="points">
              <mxPoint x="420" y="287" />
              <mxPoint x="360" y="287" />
            </Array>
          </mxGeometry>
        </mxCell>
        <mxCell id="MzSEFPL0XOC-AoXLzy2Q-25" value="Confirmation/error" style="edgeLabel;html=1;align=center;verticalAlign=middle;resizable=0;points=[];" connectable="0" vertex="1" parent="MzSEFPL0XOC-AoXLzy2Q-24">
          <mxGeometry x="0.1007" y="-2" relative="1" as="geometry">
            <mxPoint as="offset" />
          </mxGeometry>
        </mxCell>
        <mxCell id="MzSEFPL0XOC-AoXLzy2Q-26" value="" style="endArrow=classic;html=1;rounded=0;exitX=1;exitY=0.5;exitDx=0;exitDy=0;" edge="1" parent="1">
          <mxGeometry width="50" height="50" relative="1" as="geometry">
            <mxPoint x="460" y="425.78999999999996" as="sourcePoint" />
            <mxPoint x="580" y="425.78999999999996" as="targetPoint" />
          </mxGeometry>
        </mxCell>
        <mxCell id="MzSEFPL0XOC-AoXLzy2Q-27" value="user email" style="edgeLabel;html=1;align=center;verticalAlign=middle;resizable=0;points=[];" connectable="0" vertex="1" parent="MzSEFPL0XOC-AoXLzy2Q-26">
          <mxGeometry x="0.2286" relative="1" as="geometry">
            <mxPoint as="offset" />
          </mxGeometry>
        </mxCell>
        <mxCell id="MzSEFPL0XOC-AoXLzy2Q-28" value="" style="endArrow=classic;html=1;rounded=0;exitX=0.021;exitY=0.61;exitDx=0;exitDy=0;exitPerimeter=0;entryX=1;entryY=0.75;entryDx=0;entryDy=0;" edge="1" parent="1">
          <mxGeometry width="50" height="50" relative="1" as="geometry">
            <mxPoint x="579" y="453.78999999999996" as="sourcePoint" />
            <mxPoint x="460" y="455.78999999999996" as="targetPoint" />
          </mxGeometry>
        </mxCell>
        <mxCell id="MzSEFPL0XOC-AoXLzy2Q-29" value="error/confirmation" style="edgeLabel;html=1;align=center;verticalAlign=middle;resizable=0;points=[];" connectable="0" vertex="1" parent="MzSEFPL0XOC-AoXLzy2Q-28">
          <mxGeometry x="-0.1492" y="-3" relative="1" as="geometry">
            <mxPoint as="offset" />
          </mxGeometry>
        </mxCell>
        <mxCell id="MzSEFPL0XOC-AoXLzy2Q-34" value="D2" style="swimlane;horizontal=0;whiteSpace=wrap;html=1;startSize=23;" vertex="1" parent="1">
          <mxGeometry x="700" y="525.79" width="200" height="40" as="geometry">
            <mxRectangle x="690" y="500" width="40" height="50" as="alternateBounds" />
          </mxGeometry>
        </mxCell>
        <mxCell id="MzSEFPL0XOC-AoXLzy2Q-35" value="Authentication codes" style="text;html=1;align=center;verticalAlign=middle;resizable=0;points=[];autosize=1;strokeColor=none;fillColor=none;" vertex="1" parent="1">
          <mxGeometry x="745" y="533.79" width="130" height="30" as="geometry" />
        </mxCell>
        <mxCell id="MzSEFPL0XOC-AoXLzy2Q-36" value="" style="endArrow=classic;html=1;rounded=0;strokeWidth=2;entryX=0.5;entryY=1;entryDx=0;entryDy=0;exitX=1;exitY=0.5;exitDx=0;exitDy=0;" edge="1" parent="1" source="MzSEFPL0XOC-AoXLzy2Q-34" target="5xcmE_WBOUX7dpFM1XJE-64">
          <mxGeometry width="50" height="50" relative="1" as="geometry">
            <mxPoint x="1120" y="533.79" as="sourcePoint" />
            <mxPoint x="970" y="533.79" as="targetPoint" />
            <Array as="points">
              <mxPoint x="943" y="545.79" />
            </Array>
          </mxGeometry>
        </mxCell>
        <mxCell id="MzSEFPL0XOC-AoXLzy2Q-40" value="Check Code" style="edgeLabel;html=1;align=center;verticalAlign=middle;resizable=0;points=[];" connectable="0" vertex="1" parent="MzSEFPL0XOC-AoXLzy2Q-36">
          <mxGeometry x="0.1257" relative="1" as="geometry">
            <mxPoint as="offset" />
          </mxGeometry>
        </mxCell>
        <mxCell id="MzSEFPL0XOC-AoXLzy2Q-38" value="" style="endArrow=classic;html=1;rounded=0;strokeWidth=2;entryX=0;entryY=0.5;entryDx=0;entryDy=0;exitX=0.5;exitY=1;exitDx=0;exitDy=0;" edge="1" parent="1" source="5xcmE_WBOUX7dpFM1XJE-59" target="MzSEFPL0XOC-AoXLzy2Q-34">
          <mxGeometry width="50" height="50" relative="1" as="geometry">
            <mxPoint x="550" y="580.79" as="sourcePoint" />
            <mxPoint x="593" y="510.78999999999996" as="targetPoint" />
            <Array as="points">
              <mxPoint x="660" y="547.79" />
            </Array>
          </mxGeometry>
        </mxCell>
        <mxCell id="MzSEFPL0XOC-AoXLzy2Q-39" value="Store Code" style="edgeLabel;html=1;align=center;verticalAlign=middle;resizable=0;points=[];" connectable="0" vertex="1" parent="MzSEFPL0XOC-AoXLzy2Q-38">
          <mxGeometry x="-0.1745" y="2" relative="1" as="geometry">
            <mxPoint as="offset" />
          </mxGeometry>
        </mxCell>
        <mxCell id="MzSEFPL0XOC-AoXLzy2Q-41" value="6.0" style="swimlane;whiteSpace=wrap;html=1;fillColor=#0066CC;startSize=23;" vertex="1" parent="1">
          <mxGeometry x="300" y="537" width="160" height="80" as="geometry" />
        </mxCell>
        <mxCell id="MzSEFPL0XOC-AoXLzy2Q-42" value="login" style="text;html=1;align=center;verticalAlign=middle;resizable=0;points=[];autosize=1;strokeColor=none;fillColor=none;" vertex="1" parent="MzSEFPL0XOC-AoXLzy2Q-41">
          <mxGeometry x="55" y="40" width="50" height="30" as="geometry" />
        </mxCell>
        <mxCell id="MzSEFPL0XOC-AoXLzy2Q-43" value="" style="endArrow=classic;html=1;rounded=0;strokeWidth=2;exitX=0;exitY=0.75;exitDx=0;exitDy=0;" edge="1" parent="1" source="5xcmE_WBOUX7dpFM1XJE-43">
          <mxGeometry width="50" height="50" relative="1" as="geometry">
            <mxPoint x="270" y="217" as="sourcePoint" />
            <mxPoint x="300" y="557" as="targetPoint" />
            <Array as="points">
              <mxPoint x="270" y="237" />
              <mxPoint x="270" y="397" />
              <mxPoint x="270" y="557" />
            </Array>
          </mxGeometry>
        </mxCell>
        <mxCell id="MzSEFPL0XOC-AoXLzy2Q-44" value="User Details" style="edgeLabel;html=1;align=center;verticalAlign=middle;resizable=0;points=[];" connectable="0" vertex="1" parent="MzSEFPL0XOC-AoXLzy2Q-43">
          <mxGeometry x="-0.0735" y="-4" relative="1" as="geometry">
            <mxPoint y="-4" as="offset" />
          </mxGeometry>
        </mxCell>
        <mxCell id="MzSEFPL0XOC-AoXLzy2Q-45" style="edgeStyle=orthogonalEdgeStyle;rounded=0;orthogonalLoop=1;jettySize=auto;html=1;exitX=0;exitY=0.75;exitDx=0;exitDy=0;strokeWidth=2;entryX=0;entryY=0.75;entryDx=0;entryDy=0;endArrow=none;endFill=0;startArrow=classic;startFill=1;" edge="1" parent="1" target="MzSEFPL0XOC-AoXLzy2Q-41">
          <mxGeometry relative="1" as="geometry">
            <mxPoint x="300" y="197" as="sourcePoint" />
            <mxPoint x="240" y="587" as="targetPoint" />
            <Array as="points">
              <mxPoint x="220" y="197" />
              <mxPoint x="220" y="597" />
            </Array>
          </mxGeometry>
        </mxCell>
        <mxCell id="MzSEFPL0XOC-AoXLzy2Q-46" value="Confirmation/error" style="edgeLabel;html=1;align=center;verticalAlign=middle;resizable=0;points=[];" connectable="0" vertex="1" parent="MzSEFPL0XOC-AoXLzy2Q-45">
          <mxGeometry x="0.1007" y="-2" relative="1" as="geometry">
            <mxPoint as="offset" />
          </mxGeometry>
        </mxCell>
        <mxCell id="MzSEFPL0XOC-AoXLzy2Q-47" value="" style="endArrow=classic;html=1;rounded=0;strokeWidth=2;exitX=1;exitY=0.5;exitDx=0;exitDy=0;entryX=1;entryY=0.5;entryDx=0;entryDy=0;" edge="1" parent="1" source="5xcmE_WBOUX7dpFM1XJE-55" target="MzSEFPL0XOC-AoXLzy2Q-41">
          <mxGeometry width="50" height="50" relative="1" as="geometry">
            <mxPoint x="1253" y="177" as="sourcePoint" />
            <mxPoint x="1110" y="627" as="targetPoint" />
            <Array as="points">
              <mxPoint x="1490" y="230" />
              <mxPoint x="1490" y="570" />
            </Array>
          </mxGeometry>
        </mxCell>
        <mxCell id="MzSEFPL0XOC-AoXLzy2Q-48" value="Check Data" style="edgeLabel;html=1;align=center;verticalAlign=middle;resizable=0;points=[];" connectable="0" vertex="1" parent="MzSEFPL0XOC-AoXLzy2Q-47">
          <mxGeometry x="-0.1745" y="2" relative="1" as="geometry">
            <mxPoint as="offset" />
          </mxGeometry>
        </mxCell>
        <mxCell id="MzSEFPL0XOC-AoXLzy2Q-51" value="" style="endArrow=classic;html=1;rounded=0;exitX=0.25;exitY=0;exitDx=0;exitDy=0;strokeWidth=2;entryX=1;entryY=0.75;entryDx=0;entryDy=0;" edge="1" parent="1" target="MzSEFPL0XOC-AoXLzy2Q-55">
          <mxGeometry width="50" height="50" relative="1" as="geometry">
            <mxPoint x="320" y="177" as="sourcePoint" />
            <mxPoint x="320" y="100" as="targetPoint" />
            <Array as="points">
              <mxPoint x="320" y="130" />
            </Array>
          </mxGeometry>
        </mxCell>
        <mxCell id="MzSEFPL0XOC-AoXLzy2Q-52" value="User" style="edgeLabel;html=1;align=center;verticalAlign=middle;resizable=0;points=[];" connectable="0" vertex="1" parent="MzSEFPL0XOC-AoXLzy2Q-51">
          <mxGeometry x="-0.0735" y="-4" relative="1" as="geometry">
            <mxPoint y="-4" as="offset" />
          </mxGeometry>
        </mxCell>
        <mxCell id="MzSEFPL0XOC-AoXLzy2Q-53" value="" style="endArrow=none;html=1;rounded=0;exitX=0.25;exitY=0;exitDx=0;exitDy=0;strokeWidth=2;endFill=0;startArrow=classic;startFill=1;entryX=1;entryY=0.25;entryDx=0;entryDy=0;" edge="1" parent="1" target="MzSEFPL0XOC-AoXLzy2Q-55">
          <mxGeometry width="50" height="50" relative="1" as="geometry">
            <mxPoint x="360" y="177" as="sourcePoint" />
            <mxPoint x="360" y="100" as="targetPoint" />
            <Array as="points">
              <mxPoint x="360" y="90" />
            </Array>
          </mxGeometry>
        </mxCell>
        <mxCell id="MzSEFPL0XOC-AoXLzy2Q-57" value="logout" style="edgeLabel;html=1;align=center;verticalAlign=middle;resizable=0;points=[];" connectable="0" vertex="1" parent="MzSEFPL0XOC-AoXLzy2Q-53">
          <mxGeometry x="0.0342" y="-1" relative="1" as="geometry">
            <mxPoint as="offset" />
          </mxGeometry>
        </mxCell>
        <mxCell id="MzSEFPL0XOC-AoXLzy2Q-55" value="7.0" style="swimlane;whiteSpace=wrap;html=1;fillColor=#0066CC;" vertex="1" parent="1">
          <mxGeometry x="20" y="70" width="160" height="80" as="geometry" />
        </mxCell>
        <mxCell id="MzSEFPL0XOC-AoXLzy2Q-56" value="logout" style="text;html=1;align=center;verticalAlign=middle;resizable=0;points=[];autosize=1;strokeColor=none;fillColor=none;" vertex="1" parent="MzSEFPL0XOC-AoXLzy2Q-55">
          <mxGeometry x="50" y="40" width="60" height="30" as="geometry" />
        </mxCell>
        <mxCell id="MzSEFPL0XOC-AoXLzy2Q-59" value="" style="endArrow=classic;html=1;rounded=0;strokeWidth=2;entryX=0;entryY=0.75;entryDx=0;entryDy=0;" edge="1" parent="1">
          <mxGeometry width="50" height="50" relative="1" as="geometry">
            <mxPoint x="400" y="200" as="sourcePoint" />
            <mxPoint x="470" y="130" as="targetPoint" />
            <Array as="points">
              <mxPoint x="400" y="130" />
            </Array>
          </mxGeometry>
        </mxCell>
        <mxCell id="MzSEFPL0XOC-AoXLzy2Q-60" value="User Details" style="edgeLabel;html=1;align=center;verticalAlign=middle;resizable=0;points=[];" connectable="0" vertex="1" parent="MzSEFPL0XOC-AoXLzy2Q-59">
          <mxGeometry x="-0.0735" y="-4" relative="1" as="geometry">
            <mxPoint y="-4" as="offset" />
          </mxGeometry>
        </mxCell>
        <mxCell id="MzSEFPL0XOC-AoXLzy2Q-61" value="8.0" style="swimlane;whiteSpace=wrap;html=1;fillColor=#0066CC;startSize=23;" vertex="1" parent="1">
          <mxGeometry x="470" y="70" width="160" height="80" as="geometry" />
        </mxCell>
        <mxCell id="MzSEFPL0XOC-AoXLzy2Q-62" value="delete user" style="text;html=1;align=center;verticalAlign=middle;resizable=0;points=[];autosize=1;strokeColor=none;fillColor=none;" vertex="1" parent="MzSEFPL0XOC-AoXLzy2Q-61">
          <mxGeometry x="40" y="40" width="80" height="30" as="geometry" />
        </mxCell>
        <mxCell id="MzSEFPL0XOC-AoXLzy2Q-63" value="" style="endArrow=none;html=1;rounded=0;strokeWidth=2;endFill=0;startArrow=classic;startFill=1;exitX=0.446;exitY=-0.046;exitDx=0;exitDy=0;exitPerimeter=0;entryX=0;entryY=0.25;entryDx=0;entryDy=0;" edge="1" parent="1" source="MzSEFPL0XOC-AoXLzy2Q-55" target="MzSEFPL0XOC-AoXLzy2Q-61">
          <mxGeometry width="50" height="50" relative="1" as="geometry">
            <mxPoint x="90" y="20" as="sourcePoint" />
            <mxPoint x="540" y="-30" as="targetPoint" />
            <Array as="points">
              <mxPoint x="90" y="30" />
              <mxPoint x="400" y="30" />
              <mxPoint x="400" y="90" />
            </Array>
          </mxGeometry>
        </mxCell>
        <mxCell id="MzSEFPL0XOC-AoXLzy2Q-65" value="logout User" style="edgeLabel;html=1;align=center;verticalAlign=middle;resizable=0;points=[];" connectable="0" vertex="1" parent="MzSEFPL0XOC-AoXLzy2Q-63">
          <mxGeometry x="0.0342" y="-1" relative="1" as="geometry">
            <mxPoint x="1" as="offset" />
          </mxGeometry>
        </mxCell>
        <mxCell id="MzSEFPL0XOC-AoXLzy2Q-67" value="" style="endArrow=classic;html=1;rounded=0;strokeWidth=2;exitX=0.25;exitY=0;exitDx=0;exitDy=0;entryX=1;entryY=0.5;entryDx=0;entryDy=0;" edge="1" parent="1" source="5xcmE_WBOUX7dpFM1XJE-55" target="MzSEFPL0XOC-AoXLzy2Q-61">
          <mxGeometry width="50" height="50" relative="1" as="geometry">
            <mxPoint x="890" y="109.5" as="sourcePoint" />
            <mxPoint x="740" y="109.5" as="targetPoint" />
            <Array as="points">
              <mxPoint x="940" y="110" />
            </Array>
          </mxGeometry>
        </mxCell>
        <mxCell id="MzSEFPL0XOC-AoXLzy2Q-68" value="Check User" style="edgeLabel;html=1;align=center;verticalAlign=middle;resizable=0;points=[];" connectable="0" vertex="1" parent="MzSEFPL0XOC-AoXLzy2Q-67">
          <mxGeometry x="-0.1745" y="2" relative="1" as="geometry">
            <mxPoint as="offset" />
          </mxGeometry>
        </mxCell>
        <mxCell id="MzSEFPL0XOC-AoXLzy2Q-69" value="Admin" style="whiteSpace=wrap;html=1;aspect=fixed;fillColor=#CC6600;strokeColor=#d79b00;" vertex="1" parent="1">
          <mxGeometry x="1250" y="30" width="80" height="80" as="geometry" />
        </mxCell>
        <mxCell id="MzSEFPL0XOC-AoXLzy2Q-70" value="9.0" style="swimlane;whiteSpace=wrap;html=1;fillColor=#0066CC;" vertex="1" parent="1">
          <mxGeometry x="20" y="177" width="160" height="80" as="geometry" />
        </mxCell>
        <mxCell id="MzSEFPL0XOC-AoXLzy2Q-71" value="edit account" style="text;html=1;align=center;verticalAlign=middle;resizable=0;points=[];autosize=1;strokeColor=none;fillColor=none;" vertex="1" parent="MzSEFPL0XOC-AoXLzy2Q-70">
          <mxGeometry x="35" y="40" width="90" height="30" as="geometry" />
        </mxCell>
        <mxCell id="MzSEFPL0XOC-AoXLzy2Q-79" value="" style="endArrow=classic;html=1;rounded=0;exitX=0.25;exitY=0;exitDx=0;exitDy=0;strokeWidth=2;entryX=1;entryY=0.75;entryDx=0;entryDy=0;" edge="1" parent="1" target="MzSEFPL0XOC-AoXLzy2Q-70">
          <mxGeometry width="50" height="50" relative="1" as="geometry">
            <mxPoint x="270" y="237" as="sourcePoint" />
            <mxPoint x="270" y="160" as="targetPoint" />
            <Array as="points" />
          </mxGeometry>
        </mxCell>
        <mxCell id="MzSEFPL0XOC-AoXLzy2Q-82" value="" style="endArrow=classic;html=1;rounded=0;exitX=1;exitY=0.25;exitDx=0;exitDy=0;strokeWidth=2;" edge="1" parent="1" source="MzSEFPL0XOC-AoXLzy2Q-70">
          <mxGeometry width="50" height="50" relative="1" as="geometry">
            <mxPoint x="200" y="109.5" as="sourcePoint" />
            <mxPoint x="300" y="197" as="targetPoint" />
            <Array as="points" />
          </mxGeometry>
        </mxCell>
        <mxCell id="MzSEFPL0XOC-AoXLzy2Q-85" value="" style="endArrow=classic;html=1;rounded=0;strokeWidth=2;exitX=0;exitY=0.5;exitDx=0;exitDy=0;entryX=0.5;entryY=0;entryDx=0;entryDy=0;" edge="1" parent="1" source="MzSEFPL0XOC-AoXLzy2Q-69" target="MzSEFPL0XOC-AoXLzy2Q-61">
          <mxGeometry width="50" height="50" relative="1" as="geometry">
            <mxPoint x="1080" y="57" as="sourcePoint" />
            <mxPoint x="770" y="-40" as="targetPoint" />
            <Array as="points">
              <mxPoint x="1100" y="70" />
              <mxPoint x="660" y="70" />
              <mxPoint x="660" y="30" />
              <mxPoint x="550" y="30" />
            </Array>
          </mxGeometry>
        </mxCell>
        <mxCell id="MzSEFPL0XOC-AoXLzy2Q-86" value="Delete User" style="edgeLabel;html=1;align=center;verticalAlign=middle;resizable=0;points=[];" connectable="0" vertex="1" parent="MzSEFPL0XOC-AoXLzy2Q-85">
          <mxGeometry x="-0.1745" y="2" relative="1" as="geometry">
            <mxPoint as="offset" />
          </mxGeometry>
        </mxCell>
        <mxCell id="MzSEFPL0XOC-AoXLzy2Q-87" value="" style="endArrow=classic;html=1;rounded=0;strokeWidth=2;exitX=1;exitY=0.5;exitDx=0;exitDy=0;" edge="1" parent="1" source="MzSEFPL0XOC-AoXLzy2Q-69">
          <mxGeometry width="50" height="50" relative="1" as="geometry">
            <mxPoint x="1780" y="190" as="sourcePoint" />
            <mxPoint x="160" y="260" as="targetPoint" />
            <Array as="points">
              <mxPoint x="1520" y="70" />
              <mxPoint x="1520" y="640" />
              <mxPoint x="1130" y="630" />
              <mxPoint x="850" y="630" />
              <mxPoint x="160" y="630" />
            </Array>
          </mxGeometry>
        </mxCell>
        <mxCell id="MzSEFPL0XOC-AoXLzy2Q-89" value="Edit user" style="edgeLabel;html=1;align=center;verticalAlign=middle;resizable=0;points=[];" connectable="0" vertex="1" parent="MzSEFPL0XOC-AoXLzy2Q-87">
          <mxGeometry x="-0.2587" y="-1" relative="1" as="geometry">
            <mxPoint as="offset" />
          </mxGeometry>
        </mxCell>
        <mxCell id="MzSEFPL0XOC-AoXLzy2Q-94" value="" style="endArrow=classic;html=1;rounded=0;strokeWidth=2;entryX=0.5;entryY=1;entryDx=0;entryDy=0;exitX=0.75;exitY=0;exitDx=0;exitDy=0;" edge="1" parent="1" source="5xcmE_WBOUX7dpFM1XJE-55" target="MzSEFPL0XOC-AoXLzy2Q-70">
          <mxGeometry width="50" height="50" relative="1" as="geometry">
            <mxPoint x="1010" y="150" as="sourcePoint" />
            <mxPoint x="260" y="390" as="targetPoint" />
            <Array as="points">
              <mxPoint x="1040" y="190" />
              <mxPoint x="1550" y="200" />
              <mxPoint x="1550" y="440" />
              <mxPoint x="1550" y="680" />
              <mxPoint x="910" y="670" />
              <mxPoint x="340" y="670" />
              <mxPoint x="100" y="670" />
            </Array>
          </mxGeometry>
        </mxCell>
        <mxCell id="MzSEFPL0XOC-AoXLzy2Q-95" value="get user details" style="edgeLabel;html=1;align=center;verticalAlign=middle;resizable=0;points=[];" connectable="0" vertex="1" parent="MzSEFPL0XOC-AoXLzy2Q-94">
          <mxGeometry x="-0.2587" y="-1" relative="1" as="geometry">
            <mxPoint as="offset" />
          </mxGeometry>
        </mxCell>
        <mxCell id="MzSEFPL0XOC-AoXLzy2Q-96" value="" style="endArrow=none;html=1;rounded=0;strokeWidth=2;exitX=0.5;exitY=0;exitDx=0;exitDy=0;startArrow=classic;startFill=1;endFill=0;" edge="1" parent="1" source="5xcmE_WBOUX7dpFM1XJE-55">
          <mxGeometry width="50" height="50" relative="1" as="geometry">
            <mxPoint x="1030" y="297" as="sourcePoint" />
            <mxPoint x="50" y="260" as="targetPoint" />
            <Array as="points">
              <mxPoint x="990" y="170" />
              <mxPoint x="1580" y="170" />
              <mxPoint x="1580" y="440" />
              <mxPoint x="1580" y="720" />
              <mxPoint x="730" y="710" />
              <mxPoint x="100" y="710" />
              <mxPoint x="50" y="710" />
            </Array>
          </mxGeometry>
        </mxCell>
        <mxCell id="MzSEFPL0XOC-AoXLzy2Q-97" value="update user details" style="edgeLabel;html=1;align=center;verticalAlign=middle;resizable=0;points=[];" connectable="0" vertex="1" parent="MzSEFPL0XOC-AoXLzy2Q-96">
          <mxGeometry x="-0.2587" y="-1" relative="1" as="geometry">
            <mxPoint as="offset" />
          </mxGeometry>
        </mxCell>
        <mxCell id="MzSEFPL0XOC-AoXLzy2Q-98" value="10.0" style="swimlane;whiteSpace=wrap;html=1;fillColor=#0066CC;startSize=23;" vertex="1" parent="1">
          <mxGeometry x="750" y="290" width="160" height="80" as="geometry" />
        </mxCell>
        <mxCell id="MzSEFPL0XOC-AoXLzy2Q-99" value="add user" style="text;html=1;align=center;verticalAlign=middle;resizable=0;points=[];autosize=1;strokeColor=none;fillColor=none;" vertex="1" parent="MzSEFPL0XOC-AoXLzy2Q-98">
          <mxGeometry x="45" y="40" width="70" height="30" as="geometry" />
        </mxCell>
        <mxCell id="MzSEFPL0XOC-AoXLzy2Q-100" value="" style="endArrow=classic;html=1;rounded=0;strokeWidth=2;exitX=0;exitY=0.25;exitDx=0;exitDy=0;entryX=0.25;entryY=0;entryDx=0;entryDy=0;" edge="1" parent="1" source="MzSEFPL0XOC-AoXLzy2Q-69" target="MzSEFPL0XOC-AoXLzy2Q-98">
          <mxGeometry width="50" height="50" relative="1" as="geometry">
            <mxPoint x="860" y="-20" as="sourcePoint" />
            <mxPoint x="160" y="-20" as="targetPoint" />
            <Array as="points">
              <mxPoint x="790" y="50" />
            </Array>
          </mxGeometry>
        </mxCell>
        <mxCell id="MzSEFPL0XOC-AoXLzy2Q-101" value="add user" style="edgeLabel;html=1;align=center;verticalAlign=middle;resizable=0;points=[];" connectable="0" vertex="1" parent="MzSEFPL0XOC-AoXLzy2Q-100">
          <mxGeometry x="-0.1745" y="2" relative="1" as="geometry">
            <mxPoint as="offset" />
          </mxGeometry>
        </mxCell>
        <mxCell id="MzSEFPL0XOC-AoXLzy2Q-102" value="" style="endArrow=classic;html=1;rounded=0;strokeWidth=2;exitX=0.25;exitY=1;exitDx=0;exitDy=0;entryX=1;entryY=0.25;entryDx=0;entryDy=0;" edge="1" parent="1" source="5xcmE_WBOUX7dpFM1XJE-55" target="MzSEFPL0XOC-AoXLzy2Q-98">
          <mxGeometry width="50" height="50" relative="1" as="geometry">
            <mxPoint x="1030" y="-50" as="sourcePoint" />
            <mxPoint x="940" y="320" as="targetPoint" />
            <Array as="points">
              <mxPoint x="940" y="310" />
            </Array>
          </mxGeometry>
        </mxCell>
        <mxCell id="MzSEFPL0XOC-AoXLzy2Q-103" value="Check Data" style="edgeLabel;html=1;align=center;verticalAlign=middle;resizable=0;points=[];" connectable="0" vertex="1" parent="MzSEFPL0XOC-AoXLzy2Q-102">
          <mxGeometry x="-0.1745" y="2" relative="1" as="geometry">
            <mxPoint as="offset" />
          </mxGeometry>
        </mxCell>
        <mxCell id="MzSEFPL0XOC-AoXLzy2Q-104" value="" style="endArrow=classic;html=1;rounded=0;exitX=1;exitY=0.75;exitDx=0;exitDy=0;entryX=0.515;entryY=0.947;entryDx=0;entryDy=0;entryPerimeter=0;" edge="1" parent="1" source="MzSEFPL0XOC-AoXLzy2Q-98" target="5xcmE_WBOUX7dpFM1XJE-56">
          <mxGeometry width="50" height="50" relative="1" as="geometry">
            <mxPoint x="980" as="sourcePoint" />
            <mxPoint x="805" y="-151" as="targetPoint" />
            <Array as="points">
              <mxPoint x="1000" y="350" />
            </Array>
          </mxGeometry>
        </mxCell>
        <mxCell id="MzSEFPL0XOC-AoXLzy2Q-105" value="add user data" style="edgeLabel;html=1;align=center;verticalAlign=middle;resizable=0;points=[];" connectable="0" vertex="1" parent="MzSEFPL0XOC-AoXLzy2Q-104">
          <mxGeometry x="-0.0977" y="-3" relative="1" as="geometry">
            <mxPoint as="offset" />
          </mxGeometry>
        </mxCell>
        <mxCell id="MzSEFPL0XOC-AoXLzy2Q-106" value="11.0" style="swimlane;whiteSpace=wrap;html=1;fillColor=#0066CC;startSize=23;" vertex="1" parent="1">
          <mxGeometry x="1290" y="257" width="165" height="80" as="geometry" />
        </mxCell>
        <mxCell id="MzSEFPL0XOC-AoXLzy2Q-107" value="follow/unfllow user" style="text;html=1;align=center;verticalAlign=middle;resizable=0;points=[];autosize=1;strokeColor=none;fillColor=none;" vertex="1" parent="MzSEFPL0XOC-AoXLzy2Q-106">
          <mxGeometry x="20" y="40" width="120" height="30" as="geometry" />
        </mxCell>
        <mxCell id="MzSEFPL0XOC-AoXLzy2Q-108" value="" style="endArrow=none;html=1;rounded=0;exitX=0;exitY=0.75;exitDx=0;exitDy=0;endFill=0;startArrow=classic;startFill=1;" edge="1" parent="1" source="MzSEFPL0XOC-AoXLzy2Q-106">
          <mxGeometry width="50" height="50" relative="1" as="geometry">
            <mxPoint x="1275" y="351" as="sourcePoint" />
            <mxPoint x="1070" y="250" as="targetPoint" />
            <Array as="points">
              <mxPoint x="1275" y="315" />
              <mxPoint x="1192" y="315" />
              <mxPoint x="1070" y="315" />
            </Array>
          </mxGeometry>
        </mxCell>
        <mxCell id="MzSEFPL0XOC-AoXLzy2Q-109" value="get user id" style="edgeLabel;html=1;align=center;verticalAlign=middle;resizable=0;points=[];" connectable="0" vertex="1" parent="MzSEFPL0XOC-AoXLzy2Q-108">
          <mxGeometry x="-0.0977" y="-3" relative="1" as="geometry">
            <mxPoint as="offset" />
          </mxGeometry>
        </mxCell>
        <mxCell id="MzSEFPL0XOC-AoXLzy2Q-110" value="D3" style="swimlane;horizontal=0;whiteSpace=wrap;html=1;startSize=23;" vertex="1" parent="1">
          <mxGeometry x="1255" y="509.99999999999994" width="200" height="40" as="geometry">
            <mxRectangle x="690" y="500" width="40" height="50" as="alternateBounds" />
          </mxGeometry>
        </mxCell>
        <mxCell id="MzSEFPL0XOC-AoXLzy2Q-111" value="Social data" style="text;html=1;align=center;verticalAlign=middle;resizable=0;points=[];autosize=1;strokeColor=none;fillColor=none;" vertex="1" parent="1">
          <mxGeometry x="1325" y="518" width="80" height="30" as="geometry" />
        </mxCell>
        <mxCell id="MzSEFPL0XOC-AoXLzy2Q-112" value="" style="endArrow=classic;html=1;rounded=0;" edge="1" parent="1">
          <mxGeometry width="50" height="50" relative="1" as="geometry">
            <mxPoint x="1340" y="510" as="sourcePoint" />
            <mxPoint x="1340" y="330" as="targetPoint" />
          </mxGeometry>
        </mxCell>
        <mxCell id="MzSEFPL0XOC-AoXLzy2Q-113" value="check if following. if so unfollow" style="edgeLabel;html=1;align=center;verticalAlign=middle;resizable=0;points=[];" connectable="0" vertex="1" parent="MzSEFPL0XOC-AoXLzy2Q-112">
          <mxGeometry x="0.4026" relative="1" as="geometry">
            <mxPoint x="-15" y="-14" as="offset" />
          </mxGeometry>
        </mxCell>
        <mxCell id="MzSEFPL0XOC-AoXLzy2Q-114" value="" style="endArrow=classic;html=1;rounded=0;exitX=0.75;exitY=1;exitDx=0;exitDy=0;" edge="1" parent="1" source="MzSEFPL0XOC-AoXLzy2Q-106">
          <mxGeometry width="50" height="50" relative="1" as="geometry">
            <mxPoint x="1150" y="350" as="sourcePoint" />
            <mxPoint x="1420" y="510" as="targetPoint" />
          </mxGeometry>
        </mxCell>
        <mxCell id="MzSEFPL0XOC-AoXLzy2Q-115" value="follow/unfollow user" style="edgeLabel;html=1;align=center;verticalAlign=middle;resizable=0;points=[];" connectable="0" vertex="1" parent="MzSEFPL0XOC-AoXLzy2Q-114">
          <mxGeometry x="-0.2705" y="1" relative="1" as="geometry">
            <mxPoint as="offset" />
          </mxGeometry>
        </mxCell>
      </root>
    </mxGraphModel>
  </diagram>
</mxfile>
